<svg xmlns="http://www.w3.org/2000/svg" xmlns:xlink="http://www.w3.org/1999/xlink" width="500" zoomAndPan="magnify" viewBox="0 0 375 374.999991" height="500" preserveAspectRatio="xMidYMid meet" version="1.0"><defs><clipPath id="bad769eaa7"><path d="M 11.066406 9.636719 L 365.066406 9.636719 L 365.066406 363.636719 L 11.066406 363.636719 Z M 11.066406 9.636719 " clip-rule="nonzero"/></clipPath></defs><g clip-path="url(#bad769eaa7)"><path fill="#bfbdbc" d="M 365.066406 186.636719 C 365.066406 284.390625 285.824219 363.632812 188.070312 363.632812 C 90.316406 363.632812 11.074219 284.390625 11.074219 186.636719 C 11.074219 88.886719 90.316406 9.640625 188.070312 9.640625 C 285.824219 9.640625 365.066406 88.886719 365.066406 186.636719 " fill-opacity="1" fill-rule="nonzero"/></g><path fill="#ffffff" d="M 250.945312 130.683594 C 250.945312 165.53125 222.691406 193.785156 187.84375 193.785156 C 152.996094 193.785156 124.742188 165.53125 124.742188 130.683594 C 124.742188 95.835938 152.996094 67.585938 187.84375 67.585938 C 222.691406 67.585938 250.945312 95.835938 250.945312 130.683594 " fill-opacity="1" fill-rule="nonzero"/><path fill="#ffffff" d="M 187.84375 355.230469 C 232.492188 355.230469 273.277344 338.691406 304.414062 311.410156 C 294.75 248.292969 266.289062 204.492188 187.84375 204.492188 C 111.601562 204.492188 82.089844 248.476562 71.722656 311.8125 C 102.804688 338.855469 143.410156 355.230469 187.84375 355.230469 " fill-opacity="1" fill-rule="nonzero"/></svg>